<?xml version="1.0" standalone="no"?>
<!DOCTYPE svg PUBLIC "-//W3C//DTD SVG 20010904//EN"
 "http://www.w3.org/TR/2001/REC-SVG-20010904/DTD/svg10.dtd">
<svg version="1.0" xmlns="http://www.w3.org/2000/svg"
 width="484.000000pt" height="476.000000pt" viewBox="0 0 484.000000 476.000000"
 preserveAspectRatio="xMidYMid meet">

<g transform="translate(0.000000,476.000000) scale(0.100000,-0.100000)"
fill="#000000" stroke="none">
<path d="M417 3218 c-8 -24 -41 -124 -72 -223 -31 -99 -63 -202 -72 -228 -16
-52 -10 -72 23 -65 13 2 27 25 44 75 14 40 31 78 37 84 12 12 165 15 183 4 5
-3 18 -36 31 -73 12 -37 26 -73 32 -79 12 -17 46 -17 52 0 3 6 -29 113 -70
237 -111 333 -101 310 -139 310 -30 0 -35 -4 -49 -42z m92 -168 c29 -95 28
-108 -11 -115 -18 -3 -44 -4 -58 -1 -14 2 -28 5 -32 5 -5 1 -8 9 -8 19 0 18
45 166 56 184 11 17 30 -16 53 -92z"/>
<path d="M1887 3253 c-4 -3 -7 -127 -7 -275 0 -231 2 -269 15 -274 8 -4 22 -1
30 6 13 10 15 54 15 265 0 140 -3 260 -6 269 -6 16 -35 22 -47 9z"/>
<path d="M3682 3228 c2 -25 8 -33 23 -33 16 0 20 7 20 30 0 24 -5 31 -23 33
-21 3 -23 0 -20 -30z"/>
<path d="M2652 3218 c-7 -7 -12 -28 -12 -48 0 -24 -7 -43 -20 -55 -11 -10 -20
-23 -20 -30 0 -7 9 -20 20 -30 18 -17 20 -31 20 -162 0 -154 6 -178 47 -194
57 -22 84 19 39 59 -16 14 -27 36 -32 68 -9 63 1 217 15 222 6 2 19 11 27 20
15 15 14 18 -10 39 -18 15 -28 35 -31 64 -8 60 -18 72 -43 47z"/>
<path d="M3522 3218 c-7 -7 -12 -26 -12 -44 0 -17 -9 -43 -20 -57 -11 -14 -20
-28 -20 -32 0 -4 9 -18 20 -32 18 -23 20 -41 20 -165 0 -149 6 -173 47 -189
59 -22 86 23 36 59 l-28 20 0 131 0 131 29 23 29 23 -27 20 c-20 15 -29 32
-34 68 -7 51 -19 65 -40 44z"/>
<path d="M845 3107 c-11 -7 -40 -12 -65 -12 l-45 0 -3 -175 c-3 -188 0 -220
23 -220 25 0 30 23 35 168 5 142 5 144 33 168 35 30 52 30 82 -1 24 -23 25
-29 25 -168 0 -116 3 -147 15 -157 12 -10 18 -10 30 0 12 10 15 39 15 142 0
142 11 181 56 198 31 12 70 -5 78 -34 3 -11 6 -80 6 -152 0 -95 4 -135 14
-149 12 -16 16 -17 30 -6 13 11 16 38 16 165 0 178 -10 211 -73 235 -35 13
-40 12 -85 -11 l-47 -25 -44 24 c-50 26 -67 28 -96 10z"/>
<path d="M2905 3112 c-31 -11 -58 -34 -85 -72 -23 -32 -25 -45 -25 -137 0 -97
1 -103 30 -145 55 -78 152 -89 221 -25 39 37 49 79 20 85 -11 2 -29 -8 -46
-27 -55 -59 -118 -50 -154 23 -30 62 -18 70 107 74 123 3 133 9 123 76 -15
101 -111 175 -191 148z m103 -89 c13 -14 22 -35 20 -47 -3 -19 -9 -21 -83 -21
-76 0 -80 1 -83 23 -4 26 21 59 53 73 30 12 67 1 93 -28z"/>
<path d="M3235 3108 c-49 -18 -75 -55 -75 -108 0 -63 26 -89 117 -120 62 -21
75 -30 86 -63 10 -27 -34 -67 -74 -67 -23 0 -40 9 -63 35 -41 45 -66 46 -66 4
0 -63 82 -110 167 -94 72 13 121 98 93 164 -17 41 -36 55 -110 82 -36 12 -71
27 -77 32 -20 15 -15 54 9 71 34 24 66 19 100 -14 33 -33 53 -38 62 -14 10 27
-21 71 -64 88 -46 18 -63 19 -105 4z"/>
<path d="M3932 3105 c-18 -8 -49 -13 -70 -12 l-37 2 -3 -186 c-2 -157 0 -188
13 -199 12 -10 18 -10 30 0 12 10 15 39 15 142 0 143 11 181 57 199 35 13 77
-4 92 -37 6 -15 11 -82 11 -163 0 -122 2 -140 17 -145 37 -15 45 19 40 174 -2
80 -9 157 -15 172 -22 53 -93 79 -150 53z"/>
<path d="M4249 3100 c-101 -53 -118 -280 -27 -367 29 -28 66 -33 148 -22 23 4
25 1 24 -35 -3 -82 -99 -117 -152 -56 -15 17 -34 30 -44 30 -28 0 -22 -45 11
-82 24 -27 36 -32 87 -35 47 -3 66 0 92 17 59 37 66 69 70 313 4 237 1 254
-44 237 -18 -7 -35 -6 -61 5 -45 19 -60 18 -104 -5z m109 -63 c28 -22 45 -72
45 -132 0 -90 -34 -145 -87 -145 -60 1 -96 56 -96 147 0 116 71 183 138 130z"/>
<path d="M3690 3100 c-20 -12 -26 -358 -7 -384 9 -12 20 -17 31 -13 14 6 16
30 16 201 0 199 -4 218 -40 196z"/>
<path d="M2376 2445 c-3 -9 -6 -46 -6 -82 l0 -65 -27 6 c-80 18 -88 18 -123
-6 -52 -35 -80 -98 -80 -181 0 -90 16 -143 57 -183 40 -41 80 -50 127 -30 26
11 44 12 61 6 43 -16 46 -1 43 281 -3 260 -3 264 -24 267 -13 2 -24 -4 -28
-13z m-34 -216 c51 -60 49 -213 -3 -256 -33 -27 -66 -26 -100 5 -32 29 -34 34
-37 110 -6 120 30 180 98 166 14 -3 33 -14 42 -25z"/>
<path d="M4082 2428 c2 -25 8 -33 23 -33 16 0 20 7 20 30 0 24 -5 31 -23 33
-21 3 -23 0 -20 -30z"/>
<path d="M400 2304 c-24 -11 -41 -12 -56 -5 -43 19 -46 5 -48 -193 -1 -154 2
-188 14 -196 31 -19 40 8 40 122 0 126 14 192 43 213 29 20 50 19 78 -4 22
-18 24 -26 29 -177 5 -151 6 -159 25 -159 19 0 20 9 26 145 4 116 9 151 23
173 33 49 96 44 116 -9 6 -14 10 -88 10 -164 0 -140 6 -161 39 -140 21 12 15
325 -6 361 -32 54 -87 63 -145 23 l-38 -27 -38 27 c-43 30 -63 31 -112 10z"/>
<path d="M1555 2306 c-93 -40 -131 -197 -79 -321 31 -75 120 -113 183 -79 66
36 112 140 59 132 -13 -2 -29 -15 -36 -31 -33 -68 -108 -72 -146 -8 -24 41
-28 150 -7 199 16 38 63 66 97 58 13 -4 34 -20 46 -36 12 -17 30 -30 40 -30
27 0 23 51 -7 84 -42 45 -94 57 -150 32z"/>
<path d="M1880 2309 c-69 -29 -103 -95 -103 -204 0 -128 49 -198 145 -211 63
-8 106 19 141 86 52 102 28 258 -49 314 -31 22 -99 30 -134 15z m111 -75 c28
-25 42 -80 37 -150 -6 -100 -60 -154 -123 -123 -51 25 -69 61 -70 142 0 78 19
126 59 146 26 13 74 6 97 -15z"/>
<path d="M2605 2306 c-86 -37 -128 -167 -95 -288 20 -69 89 -128 152 -128 76
0 179 112 122 134 -11 4 -27 -6 -48 -28 -58 -63 -123 -57 -156 16 -31 69 -19
78 103 78 67 0 107 4 115 12 26 26 6 119 -36 166 -44 50 -99 63 -157 38z m95
-61 c30 -16 47 -53 36 -80 -8 -23 -154 -22 -163 2 -8 22 17 65 47 80 33 17 45
16 80 -2z"/>
<path d="M3275 2311 c-41 -17 -83 -68 -95 -112 -20 -72 -9 -186 23 -235 49
-79 152 -94 220 -34 42 36 60 94 59 188 -1 117 -54 190 -145 198 -23 2 -51 0
-62 -5z m105 -78 c55 -51 60 -194 8 -250 -42 -45 -104 -37 -138 19 -25 41 -28
154 -5 198 33 63 87 76 135 33z"/>
<path d="M3642 2305 c-23 -10 -39 -12 -51 -5 -36 19 -41 -6 -41 -196 0 -155 2
-184 16 -195 32 -26 44 13 44 145 0 152 11 176 81 190 35 8 44 41 16 61 -26
18 -24 18 -65 0z"/>
<path d="M4273 2305 c-37 -16 -63 -60 -63 -109 0 -52 38 -90 116 -116 74 -25
103 -55 84 -89 -27 -51 -104 -52 -140 -1 -28 39 -60 40 -60 2 0 -42 51 -89
105 -97 62 -10 131 22 150 69 37 87 8 133 -111 180 -86 34 -103 58 -68 97 25
28 68 24 107 -11 41 -35 53 -37 62 -10 14 45 -55 101 -122 100 -15 -1 -42 -7
-60 -15z"/>
<path d="M827 2304 c-13 -13 -7 -40 48 -215 30 -95 55 -184 55 -197 0 -38 -29
-83 -61 -94 -38 -13 -41 -55 -5 -64 60 -15 84 27 166 291 79 257 81 262 63
276 -28 23 -38 1 -110 -243 -3 -10 -11 -18 -18 -18 -15 0 -22 17 -67 160 -31
99 -49 125 -71 104z"/>
<path d="M4080 2290 c-15 -28 -10 -364 6 -380 6 -6 18 -8 28 -4 15 6 16 26 14
203 -3 174 -5 196 -20 199 -9 2 -22 -6 -28 -18z"/>
<path d="M301 1652 c-7 -14 -7 -24 3 -37 19 -27 48 -12 44 22 -4 33 -32 42
-47 15z"/>
<path d="M2225 1660 c-10 -17 3 -60 19 -60 23 0 41 29 29 48 -13 21 -39 27
-48 12z"/>
<path d="M460 1621 c-5 -11 -10 -33 -10 -49 0 -16 -7 -35 -15 -42 -19 -16 -19
-41 0 -66 11 -14 14 -52 15 -159 0 -92 5 -149 13 -165 15 -30 61 -49 84 -34
27 17 26 31 -6 60 l-31 27 0 128 c0 124 1 128 25 147 14 11 25 24 25 30 0 5
-11 17 -25 26 -19 12 -25 25 -25 50 0 64 -27 89 -50 47z"/>
<path d="M1192 1615 c-7 -14 -12 -39 -12 -54 0 -16 -7 -34 -15 -41 -19 -16
-19 -34 -1 -49 10 -9 15 -50 18 -164 3 -84 8 -159 12 -169 10 -22 60 -41 85
-33 30 9 26 40 -9 65 l-30 21 0 129 c0 127 0 130 25 146 14 9 25 22 25 29 0 7
-11 20 -25 29 -19 12 -25 25 -25 50 0 67 -26 89 -48 41z"/>
<path d="M2060 1621 c-5 -11 -10 -33 -10 -49 0 -16 -7 -35 -15 -42 -19 -16
-19 -41 0 -66 11 -14 14 -52 15 -159 0 -92 5 -149 13 -165 15 -30 61 -49 84
-34 27 17 26 31 -6 60 l-31 27 0 128 c0 124 1 128 25 147 14 11 25 24 25 30 0
5 -11 17 -25 26 -19 12 -25 25 -25 50 0 64 -27 89 -50 47z"/>
<path d="M1445 1518 c-61 -22 -99 -79 -111 -165 -20 -153 71 -271 192 -249 46
9 104 64 104 99 0 41 -26 40 -69 -3 -28 -29 -48 -40 -69 -40 -51 0 -100 64
-90 117 3 16 17 19 118 23 l115 5 3 43 c4 52 -27 123 -67 151 -34 25 -88 33
-126 19z m103 -70 c23 -19 34 -58 21 -74 -16 -20 -157 -20 -165 0 -8 21 23 75
49 86 26 11 74 5 95 -12z"/>
<path d="M1770 1512 c-47 -24 -74 -72 -65 -118 9 -50 39 -76 123 -108 77 -30
95 -53 73 -95 -24 -44 -96 -39 -141 11 -35 38 -66 33 -55 -10 19 -80 133 -119
205 -70 42 28 60 61 60 108 0 33 -20 76 -44 92 -6 4 -39 17 -72 28 -77 26
-102 50 -86 84 21 46 85 43 133 -5 38 -38 65 0 34 47 -18 28 -70 54 -107 54
-13 0 -39 -8 -58 -18z"/>
<path d="M2481 1515 c-21 -10 -47 -13 -72 -9 l-39 7 2 -199 c3 -191 4 -199 23
-199 19 0 20 9 26 142 6 153 16 185 65 203 30 12 69 -2 83 -29 6 -11 11 -78
11 -153 0 -141 10 -178 44 -165 14 6 16 27 16 163 0 198 -13 231 -95 247 -18
4 -44 0 -64 -8z"/>
<path d="M2803 1515 c-17 -7 -44 -33 -60 -56 -23 -36 -29 -55 -32 -121 -4 -93
13 -149 60 -194 25 -24 38 -29 77 -28 26 0 57 4 70 8 20 8 22 6 22 -33 0 -87
-94 -124 -155 -61 -48 50 -81 31 -51 -29 20 -39 63 -61 116 -61 63 0 106 25
130 76 19 39 22 65 26 244 2 110 1 212 -2 226 -6 23 -10 26 -42 21 -21 -4 -45
-1 -63 8 -34 18 -55 18 -96 0z m109 -72 c27 -24 41 -81 36 -147 -6 -71 -21
-101 -60 -117 -72 -30 -118 25 -118 142 0 63 4 81 21 103 37 47 81 54 121 19z"/>
<path d="M3770 1524 c-8 -3 -22 -8 -30 -12 -8 -4 -33 -7 -55 -7 l-40 0 -3
-186 c-2 -157 0 -188 13 -199 12 -10 18 -10 29 -1 11 9 15 47 18 156 3 129 5
147 23 164 35 33 62 35 90 7 24 -24 25 -29 25 -169 0 -116 3 -147 15 -157 12
-10 18 -10 30 0 12 10 15 39 15 142 0 142 11 181 55 198 30 11 70 -1 79 -25 3
-9 6 -81 6 -160 0 -114 3 -145 15 -155 12 -10 18 -10 30 0 21 17 22 295 1 345
-20 48 -68 71 -116 56 -21 -6 -43 -18 -50 -26 -16 -20 -25 -19 -58 5 -30 21
-69 32 -92 24z"/>
<path d="M4275 1518 c-43 -15 -65 -37 -85 -83 -54 -122 -21 -273 70 -320 77
-40 200 16 200 90 0 39 -27 37 -69 -5 -48 -49 -85 -53 -125 -13 -28 28 -40 59
-34 90 3 16 17 19 118 23 l115 5 3 45 c3 53 -29 124 -68 151 -33 23 -87 31
-125 17z m104 -71 c18 -15 32 -54 25 -72 -5 -12 -24 -15 -84 -15 -89 0 -102
11 -73 61 27 45 91 58 132 26z"/>
<path d="M306 1505 c-13 -14 -16 -44 -16 -189 0 -181 8 -217 44 -203 14 6 16
29 16 195 0 150 -3 192 -14 201 -11 9 -18 8 -30 -4z"/>
<path d="M2232 1508 c-8 -8 -12 -67 -12 -199 0 -163 2 -188 16 -193 39 -15 44
9 44 195 0 148 -3 180 -16 193 -19 19 -17 19 -32 4z"/>
</g>
</svg>
